<svg xmlns="http://www.w3.org/2000/svg" width="57" height="57" viewBox="0 0 57 57">
  <path id="Exclusión_2" data-name="Exclusión 2" d="M2841.5,53a28.49,28.49,0,0,1-20.153-48.652,28.5,28.5,0,1,1,31.246,46.412A28.323,28.323,0,0,1,2841.5,53Zm-7.848-31.61v5.382h4.728V39.782h5.818V26.771h4.338l.826-5.382H2844.2V17.9a3.014,3.014,0,0,1,.65-2.006,3,3,0,0,1,2.385-.9h2.348V10.407a29.023,29.023,0,0,0-4.168-.364,7.024,7.024,0,0,0-5.111,1.872,7.4,7.4,0,0,0-1.921,5.372v4.1Z" transform="translate(-2813 4)" fill="#ff6827"/>
</svg>
