<svg xmlns="http://www.w3.org/2000/svg" width="164" height="164" viewBox="0 0 164 164">
  <g id="Grupo_405" data-name="Grupo 405" transform="translate(-242 -1226)">
    <circle id="Elipse_11" data-name="Elipse 11" cx="82" cy="82" r="82" transform="translate(242 1226)" fill="#3cb4e5"/>
    <g id="Grupo_284" data-name="Grupo 284" transform="translate(-194.749 409.697)">
      <path id="Trazado_649" data-name="Trazado 649" d="M531.9,878.923a1.357,1.357,0,0,0-.243-.37l-.079-.083a2.1,2.1,0,0,0-2.047-.6,2.142,2.142,0,0,0-1.541,1.538,3.609,3.609,0,0,1-4.684,2.49,4.026,4.026,0,0,1-2.56-3.405.748.748,0,0,1,.008-.264,3.945,3.945,0,0,1,3.081-3.291,2.13,2.13,0,0,0,1.642-1.422,2.083,2.083,0,0,0-.457-2.07l-5.128-5.5a2.128,2.128,0,0,0-1.063-.612,1.419,1.419,0,0,0-.326-.031,2.112,2.112,0,0,0-1.375.546l-4.885,4.452a6.088,6.088,0,0,0-1.173-1.8,6.264,6.264,0,0,0-8.716-.374,6.22,6.22,0,0,0,1.4,10l-4.823,4.5a1.537,1.537,0,0,0-.239.28,2.1,2.1,0,0,0-.428,1.059,1.313,1.313,0,0,0,.008.326,2.081,2.081,0,0,0,.527,1.107l5.057,5.554a2.081,2.081,0,0,0,2.026.625,2.13,2.13,0,0,0,1.551-1.522,3.943,3.943,0,0,1,3.523-2.807.794.794,0,0,1,.264.012,4.034,4.034,0,0,1,3.193,2.828,3.611,3.611,0,0,1-2.859,4.468,2.137,2.137,0,0,0-1.659,1.41,2.091,2.091,0,0,0,.436,2.091l.075.083a1.316,1.316,0,0,0,.351.272l4.846,5.19a2.1,2.1,0,0,0,1.289.654,1.008,1.008,0,0,0,.158.01,1.3,1.3,0,0,0,.181-.012,2.032,2.032,0,0,0,.687-.228,2.1,2.1,0,0,0,.434-.3l5.294-4.825a1.317,1.317,0,0,0,.177-.2,2.138,2.138,0,0,0,.315-1.858,2.04,2.04,0,0,0-1.246-1.339,3.608,3.608,0,0,1-2.311-3.617,3.577,3.577,0,0,1,1.3-2.531c.033-.029.064-.058.1-.089a3.7,3.7,0,0,1,2.629-1.088,3.606,3.606,0,0,1,3.417,2.6,2.053,2.053,0,0,0,1.235,1.352,2.138,2.138,0,0,0,1.877-.17,1.278,1.278,0,0,0,.21-.158l5.238-4.887a2.113,2.113,0,0,0,.61-1.057,1.32,1.32,0,0,0,.035-.349,2.1,2.1,0,0,0-.548-1.341Zm-1.657,10.344a6.474,6.474,0,1,0-9.038,8.334l-4.123,3.758-4.163-4.46a6.223,6.223,0,0,0,4.026-7.464,6.649,6.649,0,0,0-5.126-4.715,3.38,3.38,0,0,0-1.21-.056,6.621,6.621,0,0,0-5.406,3.882l-4.036-4.428,4.788-4.468a2.059,2.059,0,0,0,.482-.669,2.111,2.111,0,0,0,.162-1.7,2.057,2.057,0,0,0-1.229-1.285,3.529,3.529,0,0,1-1.381-.938,3.581,3.581,0,0,1,.137-5.008,3.634,3.634,0,0,1,5.039.235,3.554,3.554,0,0,1,.822,1.449,2.055,2.055,0,0,0,1.183,1.331,2.428,2.428,0,0,0,2.406-.44l4.85-4.418,4.088,4.381a6.616,6.616,0,0,0-4.308,5.076,3.385,3.385,0,0,0-.044,1.21,6.638,6.638,0,0,0,4.285,5.487,6.214,6.214,0,0,0,7.765-3.407l4.109,4.51Z" transform="translate(21.004 0)" fill="#f7f7f7"/>
      <path id="Trazado_650" data-name="Trazado 650" d="M487.142,930.893a2.115,2.115,0,0,0,2.112,2.095h.01l24.293-.143a1.442,1.442,0,0,0,.187-.025,2.125,2.125,0,0,0,.828.168l7.536-.046a1.218,1.218,0,0,0,.26-.027,2.129,2.129,0,0,0,1.474-1.159,2.073,2.073,0,0,0-.025-1.848,3.936,3.936,0,0,1,.465-4.184.753.753,0,0,1,.185-.187,4.488,4.488,0,0,1,2.568-.876,3.621,3.621,0,0,1,3.61,3.592,3.535,3.535,0,0,1-.378,1.624,2.056,2.056,0,0,0-.006,1.833,2.14,2.14,0,0,0,1.493,1.148,1.192,1.192,0,0,0,.262.025l7.157-.044a2.109,2.109,0,0,0,2.1-2.122l-.044-7.48a2.087,2.087,0,0,0-2.109-2.091,2.148,2.148,0,0,0-1.163.343,3.61,3.61,0,0,1-5.136-1.354,4.037,4.037,0,0,1,.434-4.233.734.734,0,0,1,.183-.185,4.507,4.507,0,0,1,2.579-.882,3.592,3.592,0,0,1,1.916.552,2.174,2.174,0,0,0,2.639-.285,2.068,2.068,0,0,0,.6-1.478l-.046-7.512a2.118,2.118,0,0,0-2.122-2.1l-6.426.037a6.151,6.151,0,0,0,.334-2.051,6.238,6.238,0,0,0-6.222-6.185,7.124,7.124,0,0,0-4.02,1.316,6.337,6.337,0,0,0,.527-.83,6.637,6.637,0,0,0-.644-6.92,3.336,3.336,0,0,0-.859-.855,6.8,6.8,0,0,0-6.106-.953l-.037-6.428a2.121,2.121,0,0,0-2.124-2.1l-6.442.039a6.668,6.668,0,0,0-1.009-6.146,3.356,3.356,0,0,0-.857-.845,7.156,7.156,0,0,0-4-1.3h-.008a6.224,6.224,0,0,0-6.227,6.26,6.318,6.318,0,0,0,.38,2.1l-6.445.037a2.109,2.109,0,0,0-2.1,2.122l.044,7.536a1.5,1.5,0,0,0,.027.258,2.117,2.117,0,0,0,2.057,1.682,2.057,2.057,0,0,0,.949-.23,4.03,4.03,0,0,1,4.186.465.778.778,0,0,1,.185.185,4.031,4.031,0,0,1,.473,4.229,3.616,3.616,0,0,1-3.21,1.952,3.551,3.551,0,0,1-1.609-.382,2.038,2.038,0,0,0-.914-.216,2.109,2.109,0,0,0-2.06,1.709,1.359,1.359,0,0,0-.025.26l.042,7.161a1.261,1.261,0,0,0,.135.552c0,.031-.012.062-.012.093l.037,6.156a6.666,6.666,0,0,0-6.146,1.009,3.32,3.32,0,0,0-.845.858,6.641,6.641,0,0,0-.569,6.934,6.219,6.219,0,0,0,5.531,3.3,6.291,6.291,0,0,0,2.1-.38ZM523.4,905.715a2.08,2.08,0,0,0,.075-2.041,3.938,3.938,0,0,1,.467-4.181.784.784,0,0,1,.183-.187,4.49,4.49,0,0,1,2.57-.876,3.608,3.608,0,0,1,3.235,5.215,2.055,2.055,0,0,0,.091,2.016,2.113,2.113,0,0,0,1.819,1.009l6.683-.04.037,6.135a6.735,6.735,0,0,0-6.6.806,3.286,3.286,0,0,0-.855.864,6.647,6.647,0,0,0-.581,6.924,6.222,6.222,0,0,0,8.107,2.739l.035,6.135-5.73.033a6.222,6.222,0,0,0-5.894-8.215,7.15,7.15,0,0,0-4.057,1.341,3.4,3.4,0,0,0-.853.859,6.687,6.687,0,0,0-.963,6.087l-6.1.033-.042-6.708a2.114,2.114,0,0,0-2.1-2.105,2.068,2.068,0,0,0-.961.239,3.611,3.611,0,0,1-4.873-1.507,4.03,4.03,0,0,1,.43-4.225.689.689,0,0,1,.179-.185,4.039,4.039,0,0,1,4.213-.5,2.13,2.13,0,0,0,2.444-.392,2.092,2.092,0,0,0,.612-1.5l-.039-6.71,6.687-.042A2.1,2.1,0,0,0,523.4,905.715Zm-2.572-1.59-5.135.029-.029-4.827a6.217,6.217,0,0,0,6.006-1.119A6.633,6.633,0,0,0,520.826,904.125Zm-29.347-4.119a6.211,6.211,0,0,0,5.487-3.359,6.641,6.641,0,0,0-.644-6.922,3.427,3.427,0,0,0-.86-.853,6.787,6.787,0,0,0-6.083-.963l-.037-6.1,6.71-.04a2.116,2.116,0,0,0,1.808-1.034,2.063,2.063,0,0,0,.058-2.033,3.608,3.608,0,0,1,3.2-5.288h0a4.5,4.5,0,0,1,2.529.843.735.735,0,0,1,.185.183,4.034,4.034,0,0,1,.5,4.217,2.078,2.078,0,0,0,.083,2.043,2.1,2.1,0,0,0,1.813,1.009l6.712-.042.039,6.685a2.1,2.1,0,0,0,3.058,1.871,4.016,4.016,0,0,1,4.181.465.711.711,0,0,1,.185.185,4.022,4.022,0,0,1,.473,4.229,3.611,3.611,0,0,1-3.208,1.949,3.555,3.555,0,0,1-1.594-.372,2.1,2.1,0,0,0-3.033,1.906l.035,6.1a2.2,2.2,0,0,0-.351.382v0h0c-.048.067-.089.137-.129.206l-6.42.04a.774.774,0,0,1-.691-.4.827.827,0,0,1,.033-.839,5.265,5.265,0,0,0-.37-5.948,2.125,2.125,0,0,0-.515-.5,5.778,5.778,0,0,0-3.278-1.08,4.912,4.912,0,0,0-4.142,7.566.843.843,0,0,1,.037.847.794.794,0,0,1-.691.413l-7.082.042-.031-5.73A6.182,6.182,0,0,0,491.479,900.006Zm-6.49,22.207a3.673,3.673,0,0,1-3.212-1.914,4.034,4.034,0,0,1,.43-4.24.647.647,0,0,1,.174-.178,4.031,4.031,0,0,1,4.217-.5,2.1,2.1,0,0,0,3.052-1.9l-.033-5.462,6.961-.042a3.414,3.414,0,0,0,2.973-1.779,3.449,3.449,0,0,0-.137-3.5,2.293,2.293,0,0,1,.309-2.861,2.594,2.594,0,0,1,3.353-.114,2.686,2.686,0,0,1,.237,2.959,3.4,3.4,0,0,0,2.876,5.242l6.125-.035.029,4.846a6.792,6.792,0,0,0-6.148,1.007,3.356,3.356,0,0,0-.845.857,6.652,6.652,0,0,0-.575,6.92,6.225,6.225,0,0,0,7.636,2.932l.033,5.6a1.582,1.582,0,0,0-.143.191l-22.549.133-.042-6.71a2.1,2.1,0,0,0-1.034-1.806,2.055,2.055,0,0,0-2.03-.058A3.569,3.569,0,0,1,484.989,922.213Z" transform="translate(0 5.916)" fill="#f7f7f7"/>
    </g>
  </g>
</svg>
