<svg xmlns="http://www.w3.org/2000/svg" width="164" height="164" viewBox="0 0 164 164">
  <g id="Grupo_406" data-name="Grupo 406" transform="translate(-1103 -1226)">
    <circle id="Elipse_11" data-name="Elipse 11" cx="82" cy="82" r="82" transform="translate(1103 1226)" fill="#ff671d"/>
    <g id="Grupo_355" data-name="Grupo 355" transform="translate(800.434 484.689)">
      <path id="Trazado_267" data-name="Trazado 267" d="M395.809,804.537H356.031a1.192,1.192,0,0,0-1.191,1.191v26.816a1.19,1.19,0,0,0,1.191,1.189h39.778A1.189,1.189,0,0,0,397,832.544V805.728A1.191,1.191,0,0,0,395.809,804.537Zm-1.188,26.816h-37.4V806.917h37.4Z" transform="translate(5.393 1.693)" fill="#f7f7f7"/>
      <path id="Trazado_268" data-name="Trazado 268" d="M418.33,848.026c-.006-.027-.011-.055-.017-.081a1.186,1.186,0,0,0-.04-.131c-.011-.026-.018-.053-.03-.078a1.184,1.184,0,0,0-.075-.137c-.009-.015-.017-.034-.027-.049a1.085,1.085,0,0,0-.136-.165c-.012-.012-.027-.023-.041-.035a1.179,1.179,0,0,0-.124-.1c-.023-.015-.047-.027-.072-.043s-.053-.035-.082-.05l-9-4.453V802.5a1.191,1.191,0,0,0-1.191-1.191H355.132a1.191,1.191,0,0,0-1.191,1.191v40.209l-8.725,4.45a.724.724,0,0,0-.073.044c-.024.015-.049.03-.073.047a1.072,1.072,0,0,0-.113.093c-.017.015-.035.029-.05.044a1.175,1.175,0,0,0-.136.165l-.012.021a1.236,1.236,0,0,0-.09.165c-.011.023-.017.049-.026.075a1.123,1.123,0,0,0-.043.133c0,.026-.011.053-.014.081a1.143,1.143,0,0,0-.015.145c0,.015,0,.032,0,.047v3.231a1.19,1.19,0,0,0,1.189,1.191h71.4a1.192,1.192,0,0,0,1.191-1.191v-3.231c0-.015,0-.032-.006-.049A1.192,1.192,0,0,0,418.33,848.026Zm-62.009-44.333H406.3v38.556H356.321Zm-.9,40.938h51.8l4.854,2.4H350.71Zm60.549,5.631H346.945v-.853h69.023Z" transform="translate(0 0)" fill="#f7f7f7"/>
      <path id="Trazado_269" data-name="Trazado 269" d="M369.858,824.127a2.558,2.558,0,1,0,2.557,2.559A2.56,2.56,0,0,0,369.858,824.127Zm0,3.689a1.131,1.131,0,1,1,1.13-1.13A1.133,1.133,0,0,1,369.858,827.816Z" transform="translate(11.932 11.975)" fill="#f7f7f7"/>
    </g>
  </g>
</svg>
