<svg xmlns="http://www.w3.org/2000/svg" width="164" height="164" viewBox="0 0 164 164">
  <g id="Grupo_404" data-name="Grupo 404" transform="translate(-677 -1226)">
    <circle id="Elipse_11" data-name="Elipse 11" cx="82" cy="82" r="82" transform="translate(677 1226)" fill="#ffce2b"/>
    <g id="Grupo_354" data-name="Grupo 354" transform="translate(-281.279 343.613)">
      <path id="Trazado_531" data-name="Trazado 531" d="M1053.713,941.453c-.355-.049-.71-.082-1.067-.108-2.53-1.026-7.036-1.749-12.323,2.32l-.124.108-1.733,1.744c-6.531-4.431-11.719-1.7-13.176-.738l-6.506-6.506L998.279,958.78l7.771,7.774a19.876,19.876,0,0,0,3.708,10.667,28.115,28.115,0,0,0,3.4,4.127c1.6,1.625,3.227,3.23,4.84,4.842-1.749,2.548-1,4.659.825,6.56,1.89,1.97,3.634,2.2,6.2,1.455a.057.057,0,0,1,.062.023c1.839,2.756,3.539,4.091,5.367,4.238.759.738,1.512,1.486,2.276,2.222a7.113,7.113,0,0,0,8.445,1.111,4.853,4.853,0,0,0,1.983-2.191c4.616,3.873,7.694,3.942,11.322-1.491a.061.061,0,0,1,.064-.023c2.564.743,4.307.512,6.2-1.458,1.929-2.006,2.662-4.246.507-6.994-.015-.021-.571-.743-.545-.743a4.312,4.312,0,0,0,3.423-1.795c1.787-2.309,1.677-4.734-.239-7.121.838-.844,1.684-1.674,2.52-2.52a27.982,27.982,0,0,0,3.4-4.13,19.878,19.878,0,0,0,3.708-10.664l7.774-7.776-20.508-20.505ZM1014.4,978.372a18.925,18.925,0,0,1-4.9-8.365,14.65,14.65,0,0,1-.419-3.978l-7.884-7.882,16.949-16.951,5.436,5.434.357.36-.021.057,2.623.219.17-.427c1.039-.7,5.336-3.088,11.073,1.286l7.589,7.624a2.043,2.043,0,0,1-.008,2.878l-.5.5a2.031,2.031,0,0,1-2.875-.008l-7.766-7.8-1.887,1.316,2.1,2.461.913.916q-1.339,1.342-2.677,2.677a1.514,1.514,0,0,0-.411.71c-.046.046-.087.093-.134.139q-7.826,7.838-15.658,15.673A8.041,8.041,0,0,0,1014.4,978.372Zm25.17,21.148a2.59,2.59,0,0,1-2.116.849,4.51,4.51,0,0,1-2.7-1.635c-.365-.36-.73-.725-1.1-1.09a16.425,16.425,0,0,0,2.746-1.924,4.836,4.836,0,0,0,1.982,2.191,6.925,6.925,0,0,0,1.656.679A1.957,1.957,0,0,1,1039.575,999.52Zm11.188-1.049c-1.162,1.368-2.5,1.489-4.2-.093-.262-.242-.522-.494-.784-.74a7.116,7.116,0,0,0,1.06-.838c.972-.938,1.934-1.893,2.9-2.836l.314.309C1051.656,995.877,1051.869,997.175,1050.763,998.471Zm8.111-4.243c-1.178,1.6-2.975,1.641-4.585.038q-1.2-1.2-2.4-2.4c1.319-1.288,2.646-2.572,3.958-3.865.743.743,1.491,1.486,2.232,2.229C1059.509,991.67,1059.753,993.025,1058.874,994.228Zm3.286-9.5a2.718,2.718,0,0,1-3.788,1.425,4.04,4.04,0,0,1-.4-.255c1.27-1.257,2.53-2.528,3.793-3.8A2.479,2.479,0,0,1,1062.16,984.727Zm16.2-30.467-7.881,7.884a14.678,14.678,0,0,1-.419,3.978,18.915,18.915,0,0,1-4.935,8.4c-3.219,3.387-6.594,6.629-9.9,9.934-3.466,3.471-6.923,6.953-10.42,10.4a4.519,4.519,0,0,1-2.7,1.633,2.6,2.6,0,0,1-2.119-.849,3.113,3.113,0,0,1-.5-2.6,5.985,5.985,0,0,1,1.671-2.35c1.579-1.617,3.191-3.207,4.788-4.811.779-.779,1.551-1.561,2.317-2.355.818-.843,3.2-2.62,1.865-3.875-1.229-1.147-2.986,1.067-3.724,1.813-.779.781-1.558,1.563-2.348,2.335-3.672,3.582-7.3,7.218-11.055,10.708-1.7,1.579-3.037,1.458-4.2.09-1.1-1.3-.892-2.595.71-4.2q6.237-6.252,12.487-12.492c.581-.586,1.09-.967,1.2-1.859.077-.661-.165-1.242-.844-1.345a2.415,2.415,0,0,0-2.376,1q-7.352,7.348-14.7,14.691c-1.61,1.6-3.407,1.569-4.585-.039-.879-1.2-.635-2.559.795-4q7.456-7.487,14.94-14.937c.813-.808,1.453-1.718.455-2.651-.954-.892-1.774-.1-2.5.627q-5.743,5.767-11.512,11.51a7.881,7.881,0,0,1-1.674,1.371,2.717,2.717,0,0,1-3.788-1.425c-.612-1.535.177-2.5,1.149-3.474q9.551-9.52,19.044-19.091l2.61,2.618a4.548,4.548,0,0,0,6.431.016l.5-.5a4.534,4.534,0,0,0,.152-6.267l-5.783-5.84h0l-1.136-1.142,1.545-1.551a10.817,10.817,0,0,1,12.348-1.155l1.71-1.71,5.436-5.436Z" transform="translate(0 0)" fill="#fff"/>
    </g>
  </g>
</svg>
