<svg xmlns="http://www.w3.org/2000/svg" width="164" height="164" viewBox="0 0 164 164">
  <g id="Grupo_407" data-name="Grupo 407" transform="translate(-1530 -1226)">
    <circle id="Elipse_11" data-name="Elipse 11" cx="82" cy="82" r="82" transform="translate(1530 1226)" fill="#68d039"/>
    <g id="Grupo_356" data-name="Grupo 356" transform="translate(697.017 733.848)">
      <path id="Trazado_345" data-name="Trazado 345" d="M929.739,576.1l-2.96-.565a20.684,20.684,0,0,0-.989-4.761l2.495-1.694a1.74,1.74,0,0,0,.46-2.413l-4.387-6.455a1.735,1.735,0,0,0-2.413-.458l-2.495,1.694a20.444,20.444,0,0,0-4.06-2.673l.565-2.96a1.735,1.735,0,0,0-1.379-2.03l-7.669-1.463a1.735,1.735,0,0,0-2.03,1.381l-.565,2.96a20.453,20.453,0,0,0-4.758.987l-1.7-2.495a1.735,1.735,0,0,0-2.411-.46l-6.455,4.387a1.744,1.744,0,0,0-.46,2.412l1.695,2.5a20.6,20.6,0,0,0-2.671,4.06l-2.962-.565a1.734,1.734,0,0,0-2.028,1.381l-1.463,7.665a1.736,1.736,0,0,0,1.381,2.03l2.957.565a20.665,20.665,0,0,0,.989,4.761l-2.495,1.7a1.735,1.735,0,0,0-.46,2.41l4.387,6.455a1.736,1.736,0,0,0,2.41.46l2.5-1.7a20.455,20.455,0,0,0,4.06,2.675l-.565,2.96a1.739,1.739,0,0,0,1.379,2.03l7.669,1.461a1.613,1.613,0,0,0,.325.031,1.738,1.738,0,0,0,1.706-1.41l.565-2.96a20.465,20.465,0,0,0,4.759-.992l1.7,2.5a1.732,1.732,0,0,0,2.41.458l6.455-4.385a1.735,1.735,0,0,0,.46-2.411l-1.694-2.495a20.627,20.627,0,0,0,2.673-4.063l2.96.565a1.735,1.735,0,0,0,2.028-1.381l1.463-7.665a1.732,1.732,0,0,0-1.379-2.03Zm-3.169,7.34-2.593-.494a1.73,1.73,0,0,0-1.926,1.039,17.093,17.093,0,0,1-3.507,5.332,1.734,1.734,0,0,0-.189,2.179l1.488,2.186-3.587,2.437-1.483-2.186a1.74,1.74,0,0,0-2.1-.629,17.072,17.072,0,0,1-6.248,1.3,1.733,1.733,0,0,0-1.674,1.41l-.494,2.591L900,597.789l.5-2.591a1.738,1.738,0,0,0-1.039-1.928,17.131,17.131,0,0,1-5.335-3.507,1.731,1.731,0,0,0-2.179-.187l-2.186,1.486-2.437-3.587,2.186-1.485a1.732,1.732,0,0,0,.629-2.095,17.133,17.133,0,0,1-1.3-6.251,1.728,1.728,0,0,0-1.41-1.672l-2.591-.5.812-4.258,2.591.494a1.736,1.736,0,0,0,1.928-1.036,17.071,17.071,0,0,1,3.509-5.335,1.737,1.737,0,0,0,.187-2.179l-1.485-2.186,3.585-2.435,1.485,2.184a1.734,1.734,0,0,0,2.1.629,17.107,17.107,0,0,1,6.246-1.3,1.733,1.733,0,0,0,1.677-1.41l.5-2.593,4.256.814-.494,2.593a1.731,1.731,0,0,0,1.038,1.926,17.15,17.15,0,0,1,5.332,3.509,1.734,1.734,0,0,0,2.181.187l2.186-1.485,2.435,3.584-2.186,1.483a1.738,1.738,0,0,0-.629,2.1,17.1,17.1,0,0,1,1.3,6.248,1.734,1.734,0,0,0,1.41,1.675l2.59.5Z" transform="translate(17.238 9.957)" fill="#f7f7f7"/>
      <path id="Trazado_346" data-name="Trazado 346" d="M901.534,558.164a12.472,12.472,0,1,0-4.676,24.5h0a12.472,12.472,0,1,0,4.676-24.5Zm6.5,13.938a9,9,0,0,1-10.529,7.156h0a9,9,0,0,1,1.668-17.847,9.016,9.016,0,0,1,8.861,10.691Z" transform="translate(24.151 16.87)" fill="#f7f7f7"/>
      <path id="Trazado_347" data-name="Trazado 347" d="M883.74,578.427l.32,2.241a1.3,1.3,0,0,0,1.29,1.119,1.331,1.331,0,0,0,.187-.013l5.806-.834a1.3,1.3,0,0,0,1.105-1.477l-.32-2.241a15.367,15.367,0,0,0,3.142-1.866l1.815,1.359a1.3,1.3,0,0,0,1.826-.263l3.516-4.7a1.307,1.307,0,0,0-.26-1.826l-1.817-1.357a15.447,15.447,0,0,0,.907-3.542l2.241-.32a1.32,1.32,0,0,0,.861-.509,1.3,1.3,0,0,0,.244-.97l-.834-5.806a1.3,1.3,0,0,0-1.476-1.105l-2.241.322a15.471,15.471,0,0,0-1.863-3.144l1.359-1.815a1.307,1.307,0,0,0-.263-1.824l-4.7-3.518a1.3,1.3,0,0,0-1.826.262l-1.359,1.815a15.417,15.417,0,0,0-3.542-.907l-.322-2.244a1.3,1.3,0,0,0-1.477-1.105l-5.806.834a1.307,1.307,0,0,0-1.105,1.477l.322,2.241a15.486,15.486,0,0,0-3.142,1.868l-1.817-1.359a1.3,1.3,0,0,0-1.823.262l-3.518,4.694a1.3,1.3,0,0,0,.262,1.826l1.814,1.361a15.365,15.365,0,0,0-.907,3.54l-2.241.32A1.3,1.3,0,0,0,867,562.706l.832,5.808a1.306,1.306,0,0,0,1.479,1.105l2.241-.322a15.412,15.412,0,0,0,1.866,3.142l-1.356,1.817a1.3,1.3,0,0,0,.26,1.826l4.694,3.516a1.306,1.306,0,0,0,1.826-.26l1.361-1.817A15.4,15.4,0,0,0,883.74,578.427Zm-5.016-3.291-1.192,1.592-2.606-1.955,1.19-1.59a1.3,1.3,0,0,0-.067-1.643,12.886,12.886,0,0,1-2.448-4.125,1.308,1.308,0,0,0-1.412-.847l-1.964.282-.463-3.224,1.964-.282a1.3,1.3,0,0,0,1.116-1.208,12.9,12.9,0,0,1,1.19-4.647,1.3,1.3,0,0,0-.4-1.594l-1.59-1.19L874,552.1l1.59,1.19a1.3,1.3,0,0,0,1.645-.067,12.839,12.839,0,0,1,4.123-2.448,1.3,1.3,0,0,0,.845-1.412l-.282-1.964,3.227-.463.28,1.963a1.308,1.308,0,0,0,1.21,1.116,12.89,12.89,0,0,1,4.647,1.19,1.3,1.3,0,0,0,1.6-.4l1.19-1.59,2.608,1.952-1.189,1.588a1.3,1.3,0,0,0,.064,1.645,12.892,12.892,0,0,1,2.45,4.125,1.3,1.3,0,0,0,1.41.845l1.964-.282.463,3.224-1.964.282a1.306,1.306,0,0,0-1.116,1.21,12.805,12.805,0,0,1-1.189,4.648,1.3,1.3,0,0,0,.4,1.6l1.59,1.19-1.952,2.608-1.592-1.192a1.3,1.3,0,0,0-1.641.065,12.907,12.907,0,0,1-4.127,2.453,1.3,1.3,0,0,0-.845,1.408l.28,1.963-3.224.465-.28-1.964a1.308,1.308,0,0,0-1.21-1.119,12.8,12.8,0,0,1-4.647-1.19,1.312,1.312,0,0,0-1.594.4Z" fill="#f7f7f7"/>
      <path id="Trazado_348" data-name="Trazado 348" d="M881.938,567.054a9.374,9.374,0,1,0-1.341.1A9.819,9.819,0,0,0,881.938,567.054Zm-8.03-8.319a6.769,6.769,0,0,1,5.735-7.656,6.458,6.458,0,0,1,.965-.071,6.766,6.766,0,1,1-6.7,7.727Z" transform="translate(5.195 5.196)" fill="#f7f7f7"/>
    </g>
  </g>
</svg>
