<svg xmlns="http://www.w3.org/2000/svg" width="57" height="57" viewBox="0 0 57 57">
  <path id="Exclusión_1" data-name="Exclusión 1" d="M2841.5,53a28.49,28.49,0,0,1-20.153-48.652,28.5,28.5,0,1,1,31.246,46.412A28.323,28.323,0,0,1,2841.5,53Zm5.024-29.167c2.8,0,2.8,2.659,2.8,4.6v8.457h5.389V27.348c0-2.768-.365-4.583-1.185-5.884-1.009-1.6-2.736-2.381-5.279-2.381a6.2,6.2,0,0,0-3.267.891,5.14,5.14,0,0,0-1.838,1.914h-.075V19.518H2837.9V36.891h5.389v-8.6C2843.289,26.085,2843.673,23.833,2846.524,23.833Zm-17.4-4.315V36.891h5.395V19.518Zm2.694-8.648a3.139,3.139,0,1,0,3.124,3.124A3.128,3.128,0,0,0,2831.82,10.87Z" transform="translate(-2813 4)" fill="#ff6827"/>
</svg>
