<svg xmlns="http://www.w3.org/2000/svg" viewBox="0 0 507.19 118.2"><defs><style>.cls-1{fill:#FF671D;}</style></defs><g id="Capa_2" data-name="Capa 2"><g id="Capa_1-2" data-name="Capa 1"><path class="cls-1" d="M38.15,118.2C17.67,118.2,2.5,107.41,0,90.05H21c2.81,6.88,11.1,9.39,17.2,9.39,8.28,0,14.54-2.51,14.54-7.2.91-14.12-50.06-1.89-50.5-32.67,0-12.67,11.1-25.8,34.39-25.8,18.45,0,32.21,10,34.87,25.17H50c-1.25-3.75-5.79-6.72-13.45-6.72-9.53,0-13.44,3.44-13.44,6.41,0,4.22,5.94,5.63,15.94,7.19,20,3.28,34.4,7.66,34.4,25.17,0,16-14.69,27.21-35.33,27.21"/><path class="cls-1" d="M150.56,82.08c1.39,44.14-62.92,49-70.83,8h21.42c1.25,6,6.57,8.92,13.6,8.92,11.26,0,15.17-8,15.17-15.48V74.11a28.25,28.25,0,0,1-18.45,6.56c-19.7,0-32.83-14.22-32.83-35.33V35.8H99.28v9.54c0,4.53,1.56,15.79,15,15.79,9.22,0,15.63-6.72,15.63-15.79V35.8h20.64Z"/><path class="cls-1" d="M193.71,118.2c-20.48,0-35.65-10.79-38.15-28.15h20.95c2.81,6.88,11.1,9.39,17.2,9.39,8.29,0,14.54-2.51,14.54-7.2.91-14.12-50.06-1.89-50.5-32.67,0-12.67,11.1-25.8,34.4-25.8,18.45,0,32.2,10,34.86,25.17H205.59c-1.25-3.75-5.78-6.72-13.44-6.72-9.54,0-13.45,3.44-13.45,6.41,0,4.22,5.94,5.63,16,7.19C214.66,69.1,229,73.48,229,91c0,16-14.69,27.21-35.33,27.21"/><path class="cls-1" d="M359.75,116.32H339.11V69.26c0-4.69-1.57-16-15-16-9.23,0-15.64,6.88-15.64,16v47.06H287.67V69.26c0-4.69-1.41-16-15-16-9.07,0-15.48,6.88-15.48,16v47.06H236.39V35.8h19.86v7.82c10.9-14.28,34.61-12.3,44.87,1.56a31,31,0,0,1,24.54-11.41c21.58,0,34.09,14.38,34.09,35.49Z"/><path class="cls-1" d="M387.26,84.11c2.66,9.85,10.48,16,20.17,16,6.88,0,13.6-3,17-9.38h22c-4.69,16.42-18.92,27.52-38.93,27.52-22.67,0-41.28-18.76-41.28-42.06,2.11-58.14,88-56.86,81.77,8ZM427.6,67.23c-5.33-20.27-34.12-20.51-40,0Z"/><rect class="cls-1" x="456.05" width="20.64" height="116.32"/><path class="cls-1" d="M497,20.29a10.16,10.16,0,0,1-10.16-10.16c.55-13.44,19.77-13.44,20.32,0A10.16,10.16,0,0,1,497,20.29m0-18.41a8.2,8.2,0,0,0-8.14,8.25,8.14,8.14,0,1,0,16.27,0A8.19,8.19,0,0,0,497,1.88m5.13,13.61h-2.41l-2-3.9H495v3.87h-2.1V4.29h5.36c4.31-.23,5.25,5.67,1.52,7.05Zm-3.87-5.84c2.25.15,2.44-3.59,0-3.42H495V9.65Z"/></g></g></svg>